<?xml version="1.0" encoding="utf-8"?>
<!-- Generator: Adobe Illustrator 25.3.1, SVG Export Plug-In . SVG Version: 6.00 Build 0)  -->
<svg version="1.1" id="Layer_1" xmlns="http://www.w3.org/2000/svg" xmlns:xlink="http://www.w3.org/1999/xlink" x="0px" y="0px"
	 viewBox="0 0 500 146.96" style="enable-background:new 0 0 500 146.96;" xml:space="preserve">
<style type="text/css">
	.st0{fill-rule:evenodd;clip-rule:evenodd;}
	.st1{fill-rule:evenodd;clip-rule:evenodd;fill:#31A636;}
	.st2{fill:#31A636;}
</style>
<path class="st0" d="M489.03,0.18h4.41V0.8h-1.84v5.76h-0.61V0.8h-1.96V0.18z M494.18,0.18h0.92l1.65,4.53l0.31,0.61l0.12,0.61
	l0.12-0.74l0.31-0.74l1.65-4.23H500v6.37h-0.61V2.39l0.12-1.53l-0.31,0.61l-0.31,0.92l-1.65,4.23h-0.43l-1.84-4.72l-0.31-1.04v0.61
	v0.74v4.41h-0.61V0.18H494.18z"/>
<path d="M489.03,0.18h4.41V0.8h-1.84v5.76h-0.61V0.8h-1.96V0.18z M494.18,0.18h0.92l1.65,4.53l0.31,0.61l0.12,0.61l0.12-0.74
	l0.31-0.74l1.65-4.23H500v6.37h-0.61V2.39l0.12-1.53l-0.31,0.61l-0.31,0.92l-1.65,4.23h-0.43l-1.84-4.72l-0.31-1.04v0.61v0.74v4.41
	h-0.61V0.18H494.18z"/>
<path class="st1" d="M441.25,80l6.49,0.12l3.19,0.43l3.06,0.74l2.57,1.04l2.27,1.53l1.84,1.96l1.23,2.57l0.74,2.88l2.57,0.31
	l2.45-0.43l2.27-0.74l2.27-0.74l0.74,2.45l0.92,2.27l0.92,2.27l-1.35,0.92l-1.04,1.04l-0.74,1.53l-0.43,1.53l0.12,1.53l0.74,1.35
	l0.92-0.61l0.31-1.04l0.31-1.23v-1.23l0.12-1.35l0.43-1.35l0.74-0.92l0.74,0.31l0.43,0.43l0.43,0.61l0.61,0.74l1.04,0.92l1.84,1.04
	l-0.43,3l-0.61,2.57l-0.92,2.39l-0.92,2.45l-0.61,2.57l-0.61,2.88v3.31l-3.19,0.61l-2.76,1.23l-2.45,1.35l-2.57,1.53l-2.57,1.35
	l-2.88,1.04l-0.12-0.74v-0.74v-0.92v-0.74l-0.31-0.61l-0.61-0.61l-1.23-0.31l-0.74,1.23l-0.43,1.35l0.12,1.23l0.31,1.35l0.31,0.12
	l0.31,0.12l0.12,0.18h0.12h0.12v0.12l-0.12,0.31v0.43l-0.12,0.31l1.53,1.84l1.65,1.65l1.96,1.23l1.84,0.74l-1.35,1.35l-1.53,0.43
	l-1.35-0.31l-1.35-0.74l-1.35-0.92l-1.65-1.04l-1.53-1.04l-1.84-0.74l-1.96-0.31l-2.14,0.43v-0.12l0.12-0.31l0.12-0.31l0.12-0.31
	v-0.43l-0.12-0.43l-0.74-0.61l-0.92-0.61l-0.92-0.74l-0.74-0.61l-0.61-0.92l-0.12-1.04l0.31-1.23l-2.45-0.43l-2.14,0.12l-1.84,0.74
	l-1.53,1.04l-1.23,1.53l-0.92,1.96l-0.61,2.14l-0.31,2.27v2.27l0.12,2.39l0.31,2.27l0.61,2.14l0.92,1.96l0.92,1.65l-1.65,0.74h-1.35
	l-1.23-0.61l-0.92-0.92l-0.74-1.35l-0.61-1.65l-0.61-1.84l-0.43-1.84l-0.43-1.84l-0.61-1.65l-0.43-1.35l-0.61-1.23l-0.43-1.35
	l-0.31-1.53v-1.96l0.31-1.04l0.43-1.04l0.61-0.92l0.31-1.04l-0.12-1.23l-0.92-1.35l-3.8-0.12l-3.8-0.12l-3.8-0.43l-3.61-0.61
	l-3.49-0.92l-3.31-1.04l-2.88-1.53l-2.45-1.84l-2.14-2.27l-1.53-2.7l-2.14,1.84l-1.84,2.27l-1.47,2.27l-1.65,2.14l-1.96,1.96
	l-2.45,1.65l1.23,6.98l1.35,7.11l-1.84-0.31l-1.35-0.92l-0.92-1.04l-0.61-1.35l-0.31-1.53l-0.31-1.65l-0.12-1.84l-0.31-1.65
	l-0.43-1.65l-0.74-1.53l-1.04-1.23v-1.04l0.31-0.74l0.61-0.61l0.61-0.43l0.61-0.43l0.43-0.61v-0.92l-1.96-0.12l-1.53,0.61
	l-1.35,0.92l-1.23,1.23l-1.04,1.35l-1.35,1.23l-1.35,0.92l-1.84,0.61l-1.35,2.7l-1.65,2.45l-1.65,2.27l-1.84,2.45l-1.53,2.57
	l-1.04,2.88l-1.35-1.23L358.8,136l-0.12-1.53l0.31-1.53l1.53-1.35l1.53-1.96l1.35-2.27l1.35-2.39l1.04-2.27l0.74-1.84l0.92-2.14
	l0.43-1.96l1.96-0.92l1.35-1.35l1.04-1.53l0.61-1.96l0.43-1.96l0.31-2.27l0.12-1.53l-0.12-1.23l0.12-0.74l0.12-0.31l0.43-0.74
	l0.43-1.04l0.43-0.92l1.53-3.19l1.65-2.7l2.14-2.7h-1.53l-1.23,0.43l-0.92,0.74l-0.92,0.92l-0.74,1.04l-1.04,1.23l-1.04,0.92
	l-1.35,0.74h-4.23l0.12-0.43l0.43-0.31l0.31-0.43l0.31-0.43v-0.74l3.8-1.84l3.61-1.84l3.31-1.65l3.19-1.65l3.19-1.53l3.31-1.35
	l3.61-0.92l3.8-0.74l4.41-0.31h4.84l4.53,0.12l4.53-0.12l4.72-0.31l0.31-0.12l0.43-0.31l0.31-0.12l0.31-0.31l0.31-0.12l0.31-0.31
	l0.31-0.12h1.04l1.35-0.12h1.96l2.45-0.12l6.19-0.74L441.25,80z M0,86.99h372.27l-12.44,9.07l-0.74,12.37l-2.27,3H246.26
	l-199.09-4.96l208.53,0.74l-221.88-5.27l225.92,0.74l-239.89-5.7h0.61h1.65h2.76h3.8h4.53h5.45l6.19,0.12h6.86h7.6l8.21,0.12h8.64
	l9.13,0.12h9.37l9.86,0.12h9.99h10.17l10.29,0.12h10.29l10.29,0.12h10.17l10.17,0.12h9.86l9.56,0.12h9.25h8.82l8.21,0.12h7.9h7.11
	h6.37h5.76l4.84,0.12h3.92h3l2.14-0.12h0.92h-0.43h-1.35l-2.45-0.12H256l-4.41-0.12l-5.02-0.12l-5.94-0.12l-6.68-0.12l-7.29-0.31
	l-7.9-0.12l-8.33-0.12l-8.82-0.31l-9.25-0.31l-9.68-0.12l-9.86-0.31l-9.99-0.31l-10.29-0.12l-10.29-0.31l-10.48-0.31l-10.29-0.12
	l-10.29-0.31l-10.17-0.31l-9.86-0.12l-9.68-0.31l-9.25-0.31l-8.94-0.12l-8.52-0.12l-8.09-0.37l-7.23-0.18l-6.8-0.12l-6.06-0.12
	l-5.33-0.12l-4.41-0.12h-3.61l-2.57-0.12H9.01H8.58l262.19,1.53L0,87.11C0,87.11,0,86.99,0,86.99z M472.49,106.65l-0.31,0.12
	l-0.43,0.12l-0.12,0.31l-0.12,0.43l0.12,0.43l0.12,0.31l0.43,0.12l0.31,0.12l0.43-0.12l0.31-0.12l0.31-0.31v-0.43v-0.43l-0.31-0.31
	l-0.31-0.12L472.49,106.65z"/>
<path class="st2" d="M441.25,80l6.49,0.12l3.19,0.43l3.06,0.74l2.57,1.04l2.27,1.53l1.84,1.96l1.23,2.57l0.74,2.88l2.57,0.31
	l2.45-0.43l2.27-0.74l2.27-0.74l0.74,2.45l0.92,2.27l0.92,2.27l-1.35,0.92l-1.04,1.04l-0.74,1.53l-0.43,1.53l0.12,1.53l0.74,1.35
	l0.92-0.61l0.31-1.04l0.31-1.23v-1.23l0.12-1.35l0.43-1.35l0.74-0.92l0.74,0.31l0.43,0.43l0.43,0.61l0.61,0.74l1.04,0.92l1.84,1.04
	l-0.43,3l-0.61,2.57l-0.92,2.39l-0.92,2.45l-0.61,2.57l-0.61,2.88v3.31l-3.19,0.61l-2.76,1.23l-2.45,1.35l-2.57,1.53l-2.57,1.35
	l-2.88,1.04l-0.12-0.74v-0.74v-0.92v-0.74l-0.31-0.61l-0.61-0.61l-1.23-0.31l-0.74,1.23l-0.43,1.35l0.12,1.23l0.31,1.35l0.31,0.12
	l0.31,0.12l0.12,0.18h0.12h0.12v0.12l-0.12,0.31v0.43l-0.12,0.31l1.53,1.84l1.65,1.65l1.96,1.23l1.84,0.74l-1.35,1.35l-1.53,0.43
	l-1.35-0.31l-1.35-0.74l-1.35-0.92l-1.65-1.04l-1.53-1.04l-1.84-0.74l-1.96-0.31l-2.14,0.43v-0.12l0.12-0.31l0.12-0.31l0.12-0.31
	v-0.43l-0.12-0.43l-0.74-0.61l-0.92-0.61l-0.92-0.74l-0.74-0.61l-0.61-0.92l-0.12-1.04l0.31-1.23l-2.45-0.43l-2.14,0.12l-1.84,0.74
	l-1.53,1.04l-1.23,1.53l-0.92,1.96l-0.61,2.14l-0.31,2.27v2.27l0.12,2.39l0.31,2.27l0.61,2.14l0.92,1.96l0.92,1.65l-1.65,0.74h-1.35
	l-1.23-0.61l-0.92-0.92l-0.74-1.35l-0.61-1.65l-0.61-1.84l-0.43-1.84l-0.43-1.84l-0.61-1.65l-0.43-1.35l-0.61-1.23l-0.43-1.35
	l-0.31-1.53v-1.96l0.31-1.04l0.43-1.04l0.61-0.92l0.31-1.04l-0.12-1.23l-0.92-1.35l-3.8-0.12l-3.8-0.12l-3.8-0.43l-3.61-0.61
	l-3.49-0.92l-3.31-1.04l-2.88-1.53l-2.45-1.84l-2.14-2.27l-1.53-2.7l-2.14,1.84l-1.84,2.27l-1.47,2.27l-1.65,2.14l-1.96,1.96
	l-2.45,1.65l1.23,6.98l1.35,7.11l-1.84-0.31l-1.35-0.92l-0.92-1.04l-0.61-1.35l-0.31-1.53l-0.31-1.65l-0.12-1.84l-0.31-1.65
	l-0.43-1.65l-0.74-1.53l-1.04-1.23v-1.04l0.31-0.74l0.61-0.61l0.61-0.43l0.61-0.43l0.43-0.61v-0.92l-1.96-0.12l-1.53,0.61
	l-1.35,0.92l-1.23,1.23l-1.04,1.35l-1.35,1.23l-1.35,0.92l-1.84,0.61l-1.35,2.7l-1.65,2.45l-1.65,2.27l-1.84,2.45l-1.53,2.57
	l-1.04,2.88l-1.35-1.23L358.8,136l-0.12-1.53l0.31-1.53l1.53-1.35l1.53-1.96l1.35-2.27l1.35-2.39l1.04-2.27l0.74-1.84l0.92-2.14
	l0.43-1.96l1.96-0.92l1.35-1.35l1.04-1.53l0.61-1.96l0.43-1.96l0.31-2.27l0.12-1.53l-0.12-1.23l0.12-0.74l0.12-0.31l0.43-0.74
	l0.43-1.04l0.43-0.92l1.53-3.19l1.65-2.7l2.14-2.7h-1.53l-1.23,0.43l-0.92,0.74l-0.92,0.92l-0.74,1.04l-1.04,1.23l-1.04,0.92
	l-1.35,0.74h-4.23l0.12-0.43l0.43-0.31l0.31-0.43l0.31-0.43v-0.74l3.8-1.84l3.61-1.84l3.31-1.65l3.19-1.65l3.19-1.53l3.31-1.35
	l3.61-0.92l3.8-0.74l4.41-0.31h4.84l4.53,0.12l4.53-0.12l4.72-0.31l0.31-0.12l0.43-0.31l0.31-0.12l0.31-0.31l0.31-0.12l0.31-0.31
	l0.31-0.12h1.04l1.35-0.12h1.96l2.45-0.12l6.19-0.74L441.25,80z M0,86.99h372.27l-12.44,9.07l-0.74,12.37l-2.27,3H246.26
	l-199.09-4.96l208.53,0.74l-221.88-5.27l225.92,0.74l-239.89-5.7h0.61h1.65h2.76h3.8h4.53h5.45l6.19,0.12h6.86h7.6l8.21,0.12h8.64
	l9.13,0.12h9.37l9.86,0.12h9.99h10.17l10.29,0.12h10.29l10.29,0.12h10.17l10.17,0.12h9.86l9.56,0.12h9.25h8.82l8.21,0.12h7.9h7.11
	h6.37h5.76l4.84,0.12h3.92h3l2.14-0.12h0.92h-0.43h-1.35l-2.45-0.12H256l-4.41-0.12l-5.02-0.12l-5.94-0.12l-6.68-0.12l-7.29-0.31
	l-7.9-0.12l-8.33-0.12l-8.82-0.31l-9.25-0.31l-9.68-0.12l-9.86-0.31l-9.99-0.31l-10.29-0.12l-10.29-0.31l-10.48-0.31l-10.29-0.12
	l-10.29-0.31l-10.17-0.31l-9.86-0.12l-9.68-0.31l-9.25-0.31l-8.94-0.12l-8.52-0.12l-8.09-0.37l-7.23-0.18l-6.8-0.12l-6.06-0.12
	l-5.33-0.12l-4.41-0.12h-3.61l-2.57-0.12H9.01H8.58l262.19,1.53L0,87.11C0,87.11,0,86.99,0,86.99z M472.49,106.65l-0.31,0.12
	l-0.43,0.12l-0.12,0.31l-0.12,0.43l0.12,0.43l0.12,0.31l0.43,0.12l0.31,0.12l0.43-0.12l0.31-0.12l0.31-0.31v-0.43v-0.43l-0.31-0.31
	l-0.31-0.12L472.49,106.65z"/>
<path class="st0" d="M466.12,0h19.73l-14.09,70.63h-18.38l1.53-7.53l-3,2.88l-2.88,2.14l-2.45,1.53l-3.19,1.23l-3.31,0.74
	l-3.49,0.31l-3.8-0.43l-3.49-0.92l-2.88-1.53l-2.45-2.27l-1.84-2.88l-1.23-3.31l-0.92-3.8l-0.31-3.92l0.12-4.23l-2.45,12.68
	l-0.61,3.19l-0.12,2.45l0.12,1.23l0.43,1.53l0.61,1.65l0.43,1.53l-19.11,0.92l-0.31-1.04l-0.31-1.35l-0.12-1.35l-0.12-0.74V68v-2.21
	l-3.06,2.27l-2.88,1.84l-2.76,1.23l-3.92,1.23l-4.23,0.74l-4.41,0.12l-4.23-0.12l-3.61-0.92l-2.88-1.23L364,68.98l-1.96-2.57
	l-0.92-3L361,60.22l-1.65,3.92l-2.27,3.61l-2.88,3.19l-3.31,3l-3.8,2.7l-4.41,2.14l-4.53,1.53l-5.02,0.92l-5.45,0.31l-4.72-0.12
	l-4.23-0.74l-3.61-1.41l-3.31-1.65l-2.76-2.27l-2.45-2.7l-1.65-3l-1.23-3.19l-0.61-3.61v-3.8l0.61-4.1l1.23-4.41l1.84-4.23
	l2.27-3.92l3.06-3.49l3.49-3.19l3.92-2.7l4.23-2.14l4.53-1.53l4.84-0.92l5.33-0.31l4.84,0.12l4.41,0.74l3.8,1.23l3.31,1.84
	l2.76,2.27l2.27,2.7l1.65,2.88l1.23,3.19l0.43,3.49l0.12,3.8l-0.61,3.92l1.65-2.88l2.27-2.39l2.45-1.84l3.19-1.53l3.8-1.23
	l4.41-1.04l5.33-1.04l4.23-0.74l3.19-0.74l2.27-0.61l3.49-0.92l3.92-1.35l0.12-2.14l-0.12-1.65l-0.61-1.23l-1.04-0.92l-1.65-0.43
	l-2.14-0.12l-3,0.12l-2.57,0.61l-1.96,0.74L388.51,34l-1.35,1.53l-1.23,1.96l-18.38-1.96l1.35-3l1.53-2.57l1.65-2.14l3.06-2.57
	l3.8-2.27l2.14-0.92l2.57-0.92l3.19-0.61l5.02-0.61l5.33-0.12l5.45,0.12l4.72,0.31l3.92,0.61l3.19,0.74l2.57,1.53l2.27,1.84
	l1.23,1.65l0.92,1.96l0.61,2.45l0.31,3.92l-0.31,3.61l-0.43,1.65l1.65-4.53l1.96-4.1l2.57-3.49l2.76-3l3.92-3l4.1-2.14l4.23-1.23
	l4.72-0.43l2.88,0.12l2.76,0.61l2.45,0.74l2.14,1.23l1.84,1.53l1.65,1.96L466.12,0z M189.23,8.64h2.88l3.31,0.31l4.1,0.31l4.41,0.61
	l-4.53,11.82l-3.06-0.43l-2.45-0.12l-2.45,0.31l-1.65,0.61l-1.23,1.23l-0.92,1.65l-0.31,0.92l-0.43,1.53l-0.43,1.96h12.86l0.43-2.27
	l0.74-3.31l1.23-3.49l1.65-3.49l2.14-2.7l2.76-2.14l3.31-1.84l2.76-0.74l3.31-0.43l3.92-0.12h2.88l3.49,0.31l3.92,0.31l4.53,0.61
	l-4.53,11.82l-3.19-0.43l-2.45-0.12l-2.27,0.31l-1.65,0.61l-1.23,1.23l-1.04,1.65l-0.31,0.92l-0.31,1.53L219,29.53h9.25l-1.84,9.68
	l1.96-2.7l3-2.7l3.8-2.27l2.27-0.92l2.57-0.74l3.06-0.61l5.02-0.61l5.45-0.12h5.45l4.72,0.43l3.8,0.43l3.19,0.92l2.76,1.35
	l2.14,1.84l1.35,1.65l0.92,2.14l0.43,2.45l0.31,3.92l-0.31,3.61l-4.53,22.67l-0.43,3.19l-0.12,2.45l0.12,2.27l0.74,3H255.7
	l-0.43-1.84l-0.31-1.23l-0.12-1.35l0.12-1.96l-3,2.27l-3.06,1.84l-2.76,1.23l-3.92,1.23l-4.1,0.74l-4.53,0.12l-4.23-0.31l-3.61-0.74
	l-2.88-1.35l-2.27-1.84l-1.65-2.27l-0.92-2.45l-0.43-2.7l0.31-3l1.23-3.61l1.65-3.19l2.57-2.7l2.45-1.84l3.06-1.53l3.8-1.23
	l4.41-1.04l5.33-1.04l4.23-0.92l3.19-0.61l2.27-0.61l3.61-1.04l3.8-1.23l0.31-2.27l-0.12-1.65l-0.61-1.23l-1.04-0.74l-1.65-0.43
	l-2.27-0.12l-3.06,0.12l-2.45,0.43l-2.14,0.92l-1.35,1.04l-1.23,1.53l-1.35,1.96l-18.38-1.96l0.12-0.31h-7.9l-7.53,36.51h-19.73
	l7.41-36.88h-12.86l-7.29,36.88h-19.73l7.29-36.88h-5.64l-7.41,36.88H132.5l1.65-8.33l-3.31,3l-3.19,2.45l-3.19,1.84l-3.19,1.23
	l-3.61,0.74l-3.8,0.12l-3.8-0.31l-3.31-0.92l-2.57-1.53l-2.14-2.14l-1.23-2.14l-0.74-2.57l-0.31-3v-3.31l0.61-3.8l6.49-32.65h19.73
	l-5.64,28.12l-0.31,3l0.12,2.27l0.61,1.65l1.23,1.04l1.53,0.61l1.96,0.31l2.27-0.31l1.96-0.92l1.96-1.53l1.35-1.65l1.04-2.14
	l1.04-2.7l0.74-3.19l4.84-24.63h25.3l0.43-2.27l0.92-3.31l1.23-3.49l1.65-3.49l2.14-2.7l2.57-2.14l3.31-1.84l2.76-0.74l3.49-0.43
	L189.23,8.64z M43.68,9.86h41.11l3.92,0.12l3.31,0.61l3.06,1.04l2.45,1.35l1.96,1.84l1.96,2.7l1.04,3l0.31,3.19l-0.31,3.61
	l-1.23,3.92l-1.96,3.61l-2.88,3.19l-2.45,1.84l-2.76,1.65l-3.49,1.23l3.49,1.04l2.76,1.53l2.14,1.65l1.65,2.14l1.04,2.27l0.61,2.7
	l0.12,2.88l-0.43,3.31l-0.92,3.49l-1.53,3.31l-2.14,3l-2.45,2.7l-2.76,2.27L86.13,77l-2.45,0.92l-2.88,0.74l-3.49,0.61l-3.49,0.43
	L71.06,80l-2.27,0.12l-1.53,0.12H29.28l2.57-10.29l10.29-52.01L43.68,9.86z M290.55,9.86h19.73l-14.15,70.63H276.4L290.55,9.86z
	 M63.1,24.07l-2.76,13.48h9.56l3.19-0.31l2.45-0.43l1.84-1.04l1.35-1.35l1.04-1.65l0.61-1.96l0.12-1.96l-0.31-1.65l-0.92-1.23
	l-1.35-1.04l-2.27-0.43l-2.88-0.31H63.1C63.1,24.2,63.1,24.07,63.1,24.07z M450.5,33.02l-2.14,0.31l-2.14,0.92l-1.96,1.65
	l-1.84,2.27l-1.35,3.19l-1.04,4.1l-0.43,2.88v2.57l0.31,1.96l0.74,1.65l1.35,1.65l1.84,1.04l2.14,0.31l2.45-0.43l2.27-0.92
	l2.14-1.65l1.53-1.65l1.23-2.14l0.92-2.7l0.74-3l0.43-2.88V39.7l-0.43-1.96l-0.74-1.84l-1.53-1.53l-1.96-1.04L450.5,33.02z
	 M336.07,41.6l-2.88,0.31l-2.57,1.23l-2.27,1.84l-1.65,1.84l-1.35,2.27l-1.04,2.7l-0.74,3.19l-0.43,3.19v2.7l0.31,2.45l0.92,1.84
	l1.65,1.84l2.14,1.04l2.45,0.43L333.5,68l2.45-1.04l2.45-1.84l1.53-1.84l1.35-2.45l1.04-2.7l0.74-3.31l0.43-3.19l0.12-2.7
	l-0.43-2.14l-0.92-1.96L340.73,43l-2.14-1.04L336.07,41.6z M400.94,47.78l-4.41,1.35L392,50.36l-3.8,1.04l-2.76,1.04l-1.84,1.04
	l-1.53,1.65l-0.74,1.96l-0.12,1.35l0.31,1.35l0.61,1.04l1.23,0.74l1.35,0.43l1.96,0.12l3.19-0.31l3.19-1.23l2.88-1.84l1.96-2.14
	l1.35-2.57l1.04-3.31L400.94,47.78z M57.77,50.97l-2.88,14.21h11.09l3.49-0.12l2.76-0.74l2.14-1.04l1.65-1.53l1.04-1.84l0.74-1.96
	l0.12-1.96l-0.43-1.65l-1.04-1.53l-1.23-0.74l-1.65-0.61l-2.14-0.43h-2.57H57.77V50.97z M257.35,56.11l-4.41,1.35l-4.53,1.23
	l-3.8,1.04l-2.76,1.04l-1.65,1.04l-1.65,1.65l-0.74,1.84v1.53l0.12,1.23l0.74,1.04l1.04,0.92l1.53,0.43l1.84,0.12l3.31-0.31
	l3.19-1.23l2.76-1.84l1.96-2.14l1.53-2.57l0.92-3.31L257.35,56.11z"/>
<path d="M466.12,0h19.73l-14.09,70.63h-18.38l1.53-7.53l-3,2.88l-2.88,2.14l-2.45,1.53l-3.19,1.23l-3.31,0.74l-3.49,0.31l-3.8-0.43
	l-3.49-0.92l-2.88-1.53l-2.45-2.27l-1.84-2.88l-1.23-3.31l-0.92-3.8l-0.31-3.92l0.12-4.23l-2.45,12.68l-0.61,3.19l-0.12,2.45
	l0.12,1.23l0.43,1.53l0.61,1.65l0.43,1.53l-19.11,0.92l-0.31-1.04l-0.31-1.35l-0.12-1.35l-0.12-0.74V68v-2.21l-3.06,2.27l-2.88,1.84
	l-2.76,1.23l-3.92,1.23l-4.23,0.74l-4.41,0.12l-4.23-0.12l-3.61-0.92l-2.88-1.23L364,68.98l-1.96-2.57l-0.92-3L361,60.22l-1.65,3.92
	l-2.27,3.61l-2.88,3.19l-3.31,3l-3.8,2.7l-4.41,2.14l-4.53,1.53l-5.02,0.92l-5.45,0.31l-4.72-0.12l-4.23-0.74l-3.61-1.41l-3.31-1.65
	l-2.76-2.27l-2.45-2.7l-1.65-3l-1.23-3.19l-0.61-3.61v-3.8l0.61-4.1l1.23-4.41l1.84-4.23l2.27-3.92l3.06-3.49l3.49-3.19l3.92-2.7
	l4.23-2.14l4.53-1.53l4.84-0.92l5.33-0.31l4.84,0.12l4.41,0.74l3.8,1.23l3.31,1.84l2.76,2.27l2.27,2.7l1.65,2.88l1.23,3.19
	l0.43,3.49l0.12,3.8l-0.61,3.92l1.65-2.88l2.27-2.39l2.45-1.84l3.19-1.53l3.8-1.23l4.41-1.04l5.33-1.04l4.23-0.74l3.19-0.74
	l2.27-0.61l3.49-0.92l3.92-1.35l0.12-2.14l-0.12-1.65l-0.61-1.23l-1.04-0.92l-1.65-0.43l-2.14-0.12l-3,0.12l-2.57,0.61l-1.96,0.74
	L388.51,34l-1.35,1.53l-1.23,1.96l-18.38-1.96l1.35-3l1.53-2.57l1.65-2.14l3.06-2.57l3.8-2.27l2.14-0.92l2.57-0.92l3.19-0.61
	l5.02-0.61l5.33-0.12l5.45,0.12l4.72,0.31l3.92,0.61l3.19,0.74l2.57,1.53l2.27,1.84l1.23,1.65l0.92,1.96l0.61,2.45l0.31,3.92
	l-0.31,3.61l-0.43,1.65l1.65-4.53l1.96-4.1l2.57-3.49l2.76-3l3.92-3l4.1-2.14l4.23-1.23l4.72-0.43l2.88,0.12l2.76,0.61l2.45,0.74
	l2.14,1.23l1.84,1.53l1.65,1.96L466.12,0z M189.23,8.64h2.88l3.31,0.31l4.1,0.31l4.41,0.61l-4.53,11.82l-3.06-0.43l-2.45-0.12
	l-2.45,0.31l-1.65,0.61l-1.23,1.23l-0.92,1.65l-0.31,0.92l-0.43,1.53l-0.43,1.96h12.86l0.43-2.27l0.74-3.31l1.23-3.49l1.65-3.49
	l2.14-2.7l2.76-2.14l3.31-1.84l2.76-0.74l3.31-0.43l3.92-0.12h2.88l3.49,0.31l3.92,0.31l4.53,0.61l-4.53,11.82l-3.19-0.43
	l-2.45-0.12l-2.27,0.31l-1.65,0.61l-1.23,1.23l-1.04,1.65l-0.31,0.92l-0.31,1.53L219,29.53h9.25l-1.84,9.68l1.96-2.7l3-2.7l3.8-2.27
	l2.27-0.92l2.57-0.74l3.06-0.61l5.02-0.61l5.45-0.12h5.45l4.72,0.43l3.8,0.43l3.19,0.92l2.76,1.35l2.14,1.84l1.35,1.65l0.92,2.14
	l0.43,2.45l0.31,3.92l-0.31,3.61l-4.53,22.67l-0.43,3.19l-0.12,2.45l0.12,2.27l0.74,3H255.7l-0.43-1.84l-0.31-1.23l-0.12-1.35
	l0.12-1.96l-3,2.27l-3.06,1.84l-2.76,1.23l-3.92,1.23l-4.1,0.74l-4.53,0.12l-4.23-0.31l-3.61-0.74l-2.88-1.35l-2.27-1.84l-1.65-2.27
	l-0.92-2.45l-0.43-2.7l0.31-3l1.23-3.61l1.65-3.19l2.57-2.7l2.45-1.84l3.06-1.53l3.8-1.23l4.41-1.04l5.33-1.04l4.23-0.92l3.19-0.61
	l2.27-0.61l3.61-1.04l3.8-1.23l0.31-2.27l-0.12-1.65l-0.61-1.23l-1.04-0.74l-1.65-0.43l-2.27-0.12l-3.06,0.12l-2.45,0.43l-2.14,0.92
	l-1.35,1.04l-1.23,1.53l-1.35,1.96l-18.38-1.96l0.12-0.31h-7.9l-7.53,36.51h-19.73l7.41-36.88h-12.86l-7.29,36.88h-19.73l7.29-36.88
	h-5.64l-7.41,36.88H132.5l1.65-8.33l-3.31,3l-3.19,2.45l-3.19,1.84l-3.19,1.23l-3.61,0.74l-3.8,0.12l-3.8-0.31l-3.31-0.92
	l-2.57-1.53l-2.14-2.14l-1.23-2.14l-0.74-2.57l-0.31-3v-3.31l0.61-3.8l6.49-32.65h19.73l-5.64,28.12l-0.31,3l0.12,2.27l0.61,1.65
	l1.23,1.04l1.53,0.61l1.96,0.31l2.27-0.31l1.96-0.92l1.96-1.53l1.35-1.65l1.04-2.14l1.04-2.7l0.74-3.19l4.84-24.63h25.3l0.43-2.27
	l0.92-3.31l1.23-3.49l1.65-3.49l2.14-2.7l2.57-2.14l3.31-1.84l2.76-0.74l3.49-0.43L189.23,8.64z M43.68,9.86h41.11l3.92,0.12
	l3.31,0.61l3.06,1.04l2.45,1.35l1.96,1.84l1.96,2.7l1.04,3l0.31,3.19l-0.31,3.61l-1.23,3.92l-1.96,3.61l-2.88,3.19l-2.45,1.84
	l-2.76,1.65l-3.49,1.23l3.49,1.04l2.76,1.53l2.14,1.65l1.65,2.14l1.04,2.27l0.61,2.7l0.12,2.88l-0.43,3.31l-0.92,3.49l-1.53,3.31
	l-2.14,3l-2.45,2.7l-2.76,2.27L86.13,77l-2.45,0.92l-2.88,0.74l-3.49,0.61l-3.49,0.43L71.06,80l-2.27,0.12l-1.53,0.12H29.28
	l2.57-10.29l10.29-52.01L43.68,9.86z M290.55,9.86h19.73l-14.15,70.63H276.4L290.55,9.86z M63.1,24.07l-2.76,13.48h9.56l3.19-0.31
	l2.45-0.43l1.84-1.04l1.35-1.35l1.04-1.65l0.61-1.96l0.12-1.96l-0.31-1.65l-0.92-1.23l-1.35-1.04l-2.27-0.43l-2.88-0.31H63.1
	C63.1,24.2,63.1,24.07,63.1,24.07z M450.5,33.02l-2.14,0.31l-2.14,0.92l-1.96,1.65l-1.84,2.27l-1.35,3.19l-1.04,4.1l-0.43,2.88v2.57
	l0.31,1.96l0.74,1.65l1.35,1.65l1.84,1.04l2.14,0.31l2.45-0.43l2.27-0.92l2.14-1.65l1.53-1.65l1.23-2.14l0.92-2.7l0.74-3l0.43-2.88
	V39.7l-0.43-1.96l-0.74-1.84l-1.53-1.53l-1.96-1.04L450.5,33.02z M336.07,41.6l-2.88,0.31l-2.57,1.23l-2.27,1.84l-1.65,1.84
	l-1.35,2.27l-1.04,2.7l-0.74,3.19l-0.43,3.19v2.7l0.31,2.45l0.92,1.84l1.65,1.84l2.14,1.04l2.45,0.43L333.5,68l2.45-1.04l2.45-1.84
	l1.53-1.84l1.35-2.45l1.04-2.7l0.74-3.31l0.43-3.19l0.12-2.7l-0.43-2.14l-0.92-1.96L340.73,43l-2.14-1.04L336.07,41.6z
	 M400.94,47.78l-4.41,1.35L392,50.36l-3.8,1.04l-2.76,1.04l-1.84,1.04l-1.53,1.65l-0.74,1.96l-0.12,1.35l0.31,1.35l0.61,1.04
	l1.23,0.74l1.35,0.43l1.96,0.12l3.19-0.31l3.19-1.23l2.88-1.84l1.96-2.14l1.35-2.57l1.04-3.31L400.94,47.78z M57.77,50.97
	l-2.88,14.21h11.09l3.49-0.12l2.76-0.74l2.14-1.04l1.65-1.53l1.04-1.84l0.74-1.96l0.12-1.96l-0.43-1.65l-1.04-1.53l-1.23-0.74
	l-1.65-0.61l-2.14-0.43h-2.57H57.77V50.97z M257.35,56.11l-4.41,1.35l-4.53,1.23l-3.8,1.04l-2.76,1.04l-1.65,1.04l-1.65,1.65
	l-0.74,1.84v1.53l0.12,1.23l0.74,1.04l1.04,0.92l1.53,0.43l1.84,0.12l3.31-0.31l3.19-1.23l2.76-1.84l1.96-2.14l1.53-2.57l0.92-3.31
	L257.35,56.11z"/>
<polygon class="st0" points="156.64,120.99 158.6,120.99 156.95,129.63 162.28,129.63 161.79,131.28 154.5,131.28 "/>
<polygon points="156.64,120.99 158.6,120.99 156.95,129.63 162.28,129.63 161.79,131.28 154.5,131.28 "/>
<path class="st0" d="M170.3,120.86l1.35,0.12l1.23,0.43l0.74,0.74l0.61,1.04l0.12,1.35l-0.12,1.53l-0.74,2.27l-1.35,1.65l-1.84,1.04
	l-2.14,0.31l-1.35-0.12l-1.04-0.43l-0.92-0.74l-0.61-1.04l-0.12-1.23l0.12-1.65l0.43-1.35l0.61-1.23l0.43-0.74l0.74-0.61l0.74-0.61
	l0.74-0.43l0.74-0.12l0.74-0.12h0.92L170.3,120.86L170.3,120.86z M170,122.52l-0.92,0.12l-0.74,0.31l-0.61,0.43l-0.74,1.23
	l-0.61,1.53v1.53l0.31,1.23l0.31,0.31l0.43,0.31l0.61,0.12l0.61,0.12l0.74-0.12l0.74-0.31l0.61-0.43l0.92-1.23l0.43-1.53l0.12-1.53
	l-0.43-1.23l-0.31-0.31l-0.43-0.31l-0.43-0.12L170,122.52z"/>
<path d="M170.3,120.86l1.35,0.12l1.23,0.43l0.74,0.74l0.61,1.04l0.12,1.35l-0.12,1.53l-0.74,2.27l-1.35,1.65l-1.84,1.04l-2.14,0.31
	l-1.35-0.12l-1.04-0.43l-0.92-0.74l-0.61-1.04l-0.12-1.23l0.12-1.65l0.43-1.35l0.61-1.23l0.43-0.74l0.74-0.61l0.74-0.61l0.74-0.43
	l0.74-0.12l0.74-0.12h0.92L170.3,120.86L170.3,120.86z M170,122.52l-0.92,0.12l-0.74,0.31l-0.61,0.43l-0.74,1.23l-0.61,1.53v1.53
	l0.31,1.23l0.31,0.31l0.43,0.31l0.61,0.12l0.61,0.12l0.74-0.12l0.74-0.31l0.61-0.43l0.92-1.23l0.43-1.53l0.12-1.53l-0.43-1.23
	l-0.31-0.31l-0.43-0.31l-0.43-0.12L170,122.52z"/>
<polygon class="st0" points="182.12,120.86 183.78,120.99 184.88,121.6 185.31,122.09 185.62,122.52 185.74,123.13 185.92,123.87 
	183.78,124.17 183.66,123.74 183.47,123.44 183.17,123.01 182.74,122.83 182.25,122.7 181.7,122.52 180.9,122.7 179.98,123.01 
	179.37,123.44 178.51,124.48 178.02,126.01 177.9,127.66 178.33,128.89 178.63,129.2 179.06,129.5 179.67,129.63 180.29,129.81 
	180.9,129.63 181.7,129.5 182.25,129.2 182.86,128.89 183.17,127.54 180.78,127.54 181.08,125.83 185.62,125.83 184.88,129.93 
	184.27,130.24 183.47,130.67 182.74,130.97 179.98,131.46 178.63,131.28 177.41,130.85 176.67,130.24 176.18,129.63 175.88,128.89 
	175.75,127.54 175.88,126.13 176.37,124.66 177.1,123.25 177.71,122.52 178.63,121.78 179.55,121.29 180.59,120.99 "/>
<polygon points="182.12,120.86 183.78,120.99 184.88,121.6 185.31,122.09 185.62,122.52 185.74,123.13 185.92,123.87 183.78,124.17 
	183.66,123.74 183.47,123.44 183.17,123.01 182.74,122.83 182.25,122.7 181.7,122.52 180.9,122.7 179.98,123.01 179.37,123.44 
	178.51,124.48 178.02,126.01 177.9,127.66 178.33,128.89 178.63,129.2 179.06,129.5 179.67,129.63 180.29,129.81 180.9,129.63 
	181.7,129.5 182.25,129.2 182.86,128.89 183.17,127.54 180.78,127.54 181.08,125.83 185.62,125.83 184.88,129.93 184.27,130.24 
	183.47,130.67 182.74,130.97 179.98,131.46 178.63,131.28 177.41,130.85 176.67,130.24 176.18,129.63 175.88,128.89 175.75,127.54 
	175.88,126.13 176.37,124.66 177.1,123.25 177.71,122.52 178.63,121.78 179.55,121.29 180.59,120.99 "/>
<polygon class="st0" points="188.8,120.99 190.76,120.99 188.8,131.28 186.66,131.28 "/>
<polygon points="188.8,120.99 190.76,120.99 188.8,131.28 186.66,131.28 "/>
<polygon class="st0" points="196.83,120.86 198.48,120.99 199.58,121.6 199.89,122.09 200.2,122.7 200.2,123.25 200.2,123.87 
	198.05,124.05 198.05,123.56 197.87,123.13 197.56,122.83 197.32,122.7 197.01,122.52 196.4,122.52 195.79,122.52 195.3,122.7 
	194.87,123.01 194.56,123.13 194.38,123.56 194.38,123.87 194.56,124.17 194.99,124.36 195.6,124.66 196.4,124.97 197.32,125.09 
	198.05,125.4 198.48,125.58 198.97,125.83 199.28,126.32 199.4,126.62 199.58,127.24 199.58,127.66 199.58,128.28 199.28,129.2 
	198.66,129.93 198.17,130.42 197.75,130.85 197.13,131.16 196.4,131.28 195.6,131.46 194.68,131.46 193.03,131.28 191.99,130.54 
	191.37,129.5 191.19,127.97 193.21,127.85 193.33,128.4 193.52,128.89 193.64,129.32 194.13,129.5 194.56,129.63 195.17,129.81 
	195.79,129.63 196.21,129.63 196.7,129.32 197.13,129.01 197.32,128.71 197.44,128.28 197.44,127.97 197.32,127.66 197.13,127.54 
	196.7,127.24 196.4,127.24 195.79,127.05 195.17,126.75 194.13,126.44 193.52,126.13 192.91,125.83 192.6,125.4 192.42,124.79 
	192.29,124.36 192.42,123.74 192.72,123.01 193.21,122.21 193.64,121.78 194.13,121.48 194.68,121.17 195.3,120.99 196.09,120.86 
	"/>
<polygon points="196.83,120.86 198.48,120.99 199.58,121.6 199.89,122.09 200.2,122.7 200.2,123.25 200.2,123.87 198.05,124.05 
	198.05,123.56 197.87,123.13 197.56,122.83 197.32,122.7 197.01,122.52 196.4,122.52 195.79,122.52 195.3,122.7 194.87,123.01 
	194.56,123.13 194.38,123.56 194.38,123.87 194.56,124.17 194.99,124.36 195.6,124.66 196.4,124.97 197.32,125.09 198.05,125.4 
	198.48,125.58 198.97,125.83 199.28,126.32 199.4,126.62 199.58,127.24 199.58,127.66 199.58,128.28 199.28,129.2 198.66,129.93 
	198.17,130.42 197.75,130.85 197.13,131.16 196.4,131.28 195.6,131.46 194.68,131.46 193.03,131.28 191.99,130.54 191.37,129.5 
	191.19,127.97 193.21,127.85 193.33,128.4 193.52,128.89 193.64,129.32 194.13,129.5 194.56,129.63 195.17,129.81 195.79,129.63 
	196.21,129.63 196.7,129.32 197.13,129.01 197.32,128.71 197.44,128.28 197.44,127.97 197.32,127.66 197.13,127.54 196.7,127.24 
	196.4,127.24 195.79,127.05 195.17,126.75 194.13,126.44 193.52,126.13 192.91,125.83 192.6,125.4 192.42,124.79 192.29,124.36 
	192.42,123.74 192.72,123.01 193.21,122.21 193.64,121.78 194.13,121.48 194.68,121.17 195.3,120.99 196.09,120.86 "/>
<polygon class="st0" points="202.28,120.99 210.61,120.99 210.18,122.7 207.12,122.7 205.46,131.28 203.38,131.28 205.04,122.7 
	201.97,122.7 "/>
<polygon points="202.28,120.99 210.61,120.99 210.18,122.7 207.12,122.7 205.46,131.28 203.38,131.28 205.04,122.7 201.97,122.7 "/>
<polygon class="st0" points="212.14,120.99 214.29,120.99 212.14,131.28 210,131.28 "/>
<polygon points="212.14,120.99 214.29,120.99 212.14,131.28 210,131.28 "/>
<polygon class="st0" points="221.09,120.86 222.74,121.17 223.84,121.91 224.27,122.4 224.45,123.13 224.58,123.87 222.43,124.36 
	222.31,123.87 222.19,123.44 221.88,123.13 221.58,122.83 221.09,122.7 220.66,122.52 219.86,122.7 219.13,123.01 218.51,123.44 
	217.78,124.48 217.29,126.13 217.16,127.85 217.47,128.89 217.78,129.2 218.08,129.5 218.51,129.63 219.13,129.81 219.55,129.63 
	220.17,129.5 220.66,129.2 221.09,128.71 221.58,128.28 221.88,127.54 223.66,128.15 222.74,129.63 221.7,130.67 220.35,131.28 
	218.82,131.46 217.47,131.28 216.37,130.85 215.63,130.12 215.2,129.01 214.9,127.85 215.02,126.32 215.94,123.87 217.29,122.21 
	219,121.17 "/>
<polygon points="221.09,120.86 222.74,121.17 223.84,121.91 224.27,122.4 224.45,123.13 224.58,123.87 222.43,124.36 222.31,123.87 
	222.19,123.44 221.88,123.13 221.58,122.83 221.09,122.7 220.66,122.52 219.86,122.7 219.13,123.01 218.51,123.44 217.78,124.48 
	217.29,126.13 217.16,127.85 217.47,128.89 217.78,129.2 218.08,129.5 218.51,129.63 219.13,129.81 219.55,129.63 220.17,129.5 
	220.66,129.2 221.09,128.71 221.58,128.28 221.88,127.54 223.66,128.15 222.74,129.63 221.7,130.67 220.35,131.28 218.82,131.46 
	217.47,131.28 216.37,130.85 215.63,130.12 215.2,129.01 214.9,127.85 215.02,126.32 215.94,123.87 217.29,122.21 219,121.17 "/>
<polygon class="st0" points="230.95,120.86 232.6,120.99 233.7,121.6 234.01,122.09 234.32,122.7 234.32,123.25 234.32,123.87 
	232.17,124.05 232.17,123.56 231.99,123.13 231.87,122.83 231.56,122.7 231.13,122.52 230.52,122.52 230.03,122.52 229.42,122.7 
	228.99,123.01 228.68,123.13 228.5,123.56 228.5,123.87 228.8,124.17 229.11,124.36 229.72,124.66 230.52,124.97 231.38,125.09 
	232.17,125.4 232.6,125.58 233.09,125.83 233.4,126.32 233.7,126.62 233.7,127.24 233.83,127.66 233.7,128.28 233.4,129.2 
	232.91,129.93 232.48,130.42 231.87,130.85 231.25,131.16 230.52,131.28 229.72,131.46 228.99,131.46 227.15,131.28 226.11,130.54 
	225.5,129.5 225.31,127.97 227.46,127.85 227.46,128.4 227.64,128.89 227.95,129.32 228.25,129.5 228.68,129.63 229.29,129.81 
	229.91,129.63 230.52,129.63 230.95,129.32 231.25,129.01 231.38,128.71 231.56,128.28 231.56,127.97 231.56,127.66 231.25,127.54 
	230.83,127.24 230.52,127.24 230.03,127.05 229.29,126.75 228.38,126.44 227.64,126.13 227.15,125.83 226.72,125.4 226.54,124.79 
	226.54,124.36 226.54,123.74 226.84,123.01 227.33,122.21 227.76,121.78 228.25,121.48 228.8,121.17 229.42,120.99 230.21,120.86 
	"/>
<polygon points="230.95,120.86 232.6,120.99 233.7,121.6 234.01,122.09 234.32,122.7 234.32,123.25 234.32,123.87 232.17,124.05 
	232.17,123.56 231.99,123.13 231.87,122.83 231.56,122.7 231.13,122.52 230.52,122.52 230.03,122.52 229.42,122.7 228.99,123.01 
	228.68,123.13 228.5,123.56 228.5,123.87 228.8,124.17 229.11,124.36 229.72,124.66 230.52,124.97 231.38,125.09 232.17,125.4 
	232.6,125.58 233.09,125.83 233.4,126.32 233.7,126.62 233.7,127.24 233.83,127.66 233.7,128.28 233.4,129.2 232.91,129.93 
	232.48,130.42 231.87,130.85 231.25,131.16 230.52,131.28 229.72,131.46 228.99,131.46 227.15,131.28 226.11,130.54 225.5,129.5 
	225.31,127.97 227.46,127.85 227.46,128.4 227.64,128.89 227.95,129.32 228.25,129.5 228.68,129.63 229.29,129.81 229.91,129.63 
	230.52,129.63 230.95,129.32 231.25,129.01 231.38,128.71 231.56,128.28 231.56,127.97 231.56,127.66 231.25,127.54 230.83,127.24 
	230.52,127.24 230.03,127.05 229.29,126.75 228.38,126.44 227.64,126.13 227.15,125.83 226.72,125.4 226.54,124.79 226.54,124.36 
	226.54,123.74 226.84,123.01 227.33,122.21 227.76,121.78 228.25,121.48 228.8,121.17 229.42,120.99 230.21,120.86 "/>
<path class="st0" d="M245.34,120.86h0.61l0.61,0.12l0.31,0.12l0.43,0.31l0.31,0.43l0.12,0.61v0.61l-0.31,0.61l-0.31,0.61l-0.43,0.43
	l-0.61,0.43l-0.74,0.43l1.04,1.84l0.31-0.43l0.31-0.74l1.84,0.43l-0.31,0.61l-0.31,0.43l-0.12,0.31l-0.31,0.43l-0.31,0.31l0.31,0.31
	l0.43,0.43l0.31,0.31l0.31,0.12l-1.53,1.53l-0.74-0.43l-0.61-0.74l-0.74,0.43l-0.74,0.43l-0.92,0.12h-0.92l-1.65-0.12l-0.92-0.92
	l-0.31-0.61l-0.12-0.61v-0.74l0.12-0.61l0.31-0.61l0.43-0.43l0.61-0.61l0.74-0.43l0.74-0.31l-0.31-0.74l-0.31-0.43v-0.61v-0.43
	l0.12-0.61l0.31-0.61l0.61-0.43l0.61-0.31l0.74-0.31h0.98L245.34,120.86L245.34,120.86z M245.04,122.21h-0.43l-0.31,0.12l-0.31,0.31
	v0.31v0.43l0.12,0.43l0.43,0.61l0.61-0.43l0.43-0.31l0.12-0.31l0.12-0.31v-0.31l-0.12-0.31l-0.31-0.31h-0.37L245.04,122.21
	L245.04,122.21z M243.38,126.62l-0.61,0.31l-0.61,0.43l-0.31,0.61l-0.12,0.43l-0.12,0.43l0.12,0.31l0.12,0.31l0.31,0.12l0.31,0.12
	l0.43,0.12l0.43-0.12l0.43-0.12l0.43-0.12l0.61-0.43L243.38,126.62z"/>
<path d="M245.34,120.86h0.61l0.61,0.12l0.31,0.12l0.43,0.31l0.31,0.43l0.12,0.61v0.61l-0.31,0.61l-0.31,0.61l-0.43,0.43l-0.61,0.43
	l-0.74,0.43l1.04,1.84l0.31-0.43l0.31-0.74l1.84,0.43l-0.31,0.61l-0.31,0.43l-0.12,0.31l-0.31,0.43l-0.31,0.31l0.31,0.31l0.43,0.43
	l0.31,0.31l0.31,0.12l-1.53,1.53l-0.74-0.43l-0.61-0.74l-0.74,0.43l-0.74,0.43l-0.92,0.12h-0.92l-1.65-0.12l-0.92-0.92l-0.31-0.61
	l-0.12-0.61v-0.74l0.12-0.61l0.31-0.61l0.43-0.43l0.61-0.61l0.74-0.43l0.74-0.31l-0.31-0.74l-0.31-0.43v-0.61v-0.43l0.12-0.61
	l0.31-0.61l0.61-0.43l0.61-0.31l0.74-0.31h0.98L245.34,120.86L245.34,120.86z M245.04,122.21h-0.43l-0.31,0.12l-0.31,0.31v0.31v0.43
	l0.12,0.43l0.43,0.61l0.61-0.43l0.43-0.31l0.12-0.31l0.12-0.31v-0.31l-0.12-0.31l-0.31-0.31h-0.37L245.04,122.21L245.04,122.21z
	 M243.38,126.62l-0.61,0.31l-0.61,0.43l-0.31,0.61l-0.12,0.43l-0.12,0.43l0.12,0.31l0.12,0.31l0.31,0.12l0.31,0.12l0.43,0.12
	l0.43-0.12l0.43-0.12l0.43-0.12l0.61-0.43L243.38,126.62z"/>
<polygon class="st0" points="256.55,120.99 263.72,120.99 263.42,122.7 258.39,122.7 257.78,125.28 262.19,125.28 261.88,126.93 
	257.47,126.93 256.55,131.28 254.59,131.28 "/>
<polygon points="256.55,120.99 263.72,120.99 263.42,122.7 258.39,122.7 257.78,125.28 262.19,125.28 261.88,126.93 257.47,126.93 
	256.55,131.28 254.59,131.28 "/>
<path class="st0" d="M267.95,120.99h2.14l2.14,10.29h-2.27l-0.43-2.27h-4.1l-1.35,2.27h-2.27L267.95,120.99z M268.56,123.44
	l-2.27,3.8h2.88L268.56,123.44z"/>
<path d="M267.95,120.99h2.14l2.14,10.29h-2.27l-0.43-2.27h-4.1l-1.35,2.27h-2.27L267.95,120.99z M268.56,123.44l-2.27,3.8h2.88
	L268.56,123.44z"/>
<polygon class="st0" points="280.26,120.86 281.92,121.17 283.14,121.91 283.45,122.4 283.57,123.13 283.69,123.87 281.61,124.36 
	281.43,123.87 281.3,123.44 281,123.13 280.69,122.83 280.26,122.7 279.77,122.52 279.04,122.7 278.24,123.01 277.63,123.44 
	276.89,124.48 276.46,126.13 276.28,127.85 276.59,128.89 276.89,129.2 277.2,129.5 277.63,129.63 278.24,129.81 278.85,129.63 
	279.34,129.5 279.77,129.2 280.26,128.71 280.69,128.28 281,127.54 282.96,128.15 282.04,129.63 280.81,130.67 279.47,131.28 
	277.93,131.46 276.59,131.28 275.67,130.85 274.75,130.12 274.32,129.01 274.2,127.85 274.32,126.32 275.06,123.87 276.46,122.21 
	278.12,121.17 "/>
<polygon points="280.26,120.86 281.92,121.17 283.14,121.91 283.45,122.4 283.57,123.13 283.69,123.87 281.61,124.36 281.43,123.87 
	281.3,123.44 281,123.13 280.69,122.83 280.26,122.7 279.77,122.52 279.04,122.7 278.24,123.01 277.63,123.44 276.89,124.48 
	276.46,126.13 276.28,127.85 276.59,128.89 276.89,129.2 277.2,129.5 277.63,129.63 278.24,129.81 278.85,129.63 279.34,129.5 
	279.77,129.2 280.26,128.71 280.69,128.28 281,127.54 282.96,128.15 282.04,129.63 280.81,130.67 279.47,131.28 277.93,131.46 
	276.59,131.28 275.67,130.85 274.75,130.12 274.32,129.01 274.2,127.85 274.32,126.32 275.06,123.87 276.46,122.21 278.12,121.17 
	"/>
<polygon class="st0" points="286.33,120.99 288.41,120.99 286.45,131.28 284.31,131.28 "/>
<polygon points="286.33,120.99 288.41,120.99 286.45,131.28 284.31,131.28 "/>
<polygon class="st0" points="290.68,120.99 292.82,120.99 291.17,129.63 296.31,129.63 296.01,131.28 288.72,131.28 "/>
<polygon points="290.68,120.99 292.82,120.99 291.17,129.63 296.31,129.63 296.01,131.28 288.72,131.28 "/>
<polygon class="st0" points="299.8,120.99 301.95,120.99 299.8,131.28 297.66,131.28 "/>
<polygon points="299.8,120.99 301.95,120.99 299.8,131.28 297.66,131.28 "/>
<polygon class="st0" points="303.42,120.99 311.63,120.99 311.32,122.7 308.26,122.7 306.48,131.28 304.52,131.28 306.17,122.7 
	303.11,122.7 "/>
<polygon points="303.42,120.99 311.63,120.99 311.32,122.7 308.26,122.7 306.48,131.28 304.52,131.28 306.17,122.7 303.11,122.7 "/>
<polygon class="st0" points="313.28,120.99 315.43,120.99 313.28,131.28 311.2,131.28 "/>
<polygon points="313.28,120.99 315.43,120.99 313.28,131.28 311.2,131.28 "/>
<polygon class="st0" points="317.69,120.99 325.29,120.99 324.98,122.7 319.35,122.7 318.92,125.09 324.06,125.09 323.76,126.75 
	318.61,126.75 318,129.63 323.76,129.63 323.45,131.28 315.55,131.28 "/>
<polygon points="317.69,120.99 325.29,120.99 324.98,122.7 319.35,122.7 318.92,125.09 324.06,125.09 323.76,126.75 318.61,126.75 
	318,129.63 323.76,129.63 323.45,131.28 315.55,131.28 "/>
<polygon class="st0" points="331.17,120.86 332.88,120.99 334.05,121.6 334.35,122.09 334.54,122.7 334.66,123.25 334.54,123.87 
	332.58,124.05 332.39,123.56 332.39,123.13 332.09,122.83 331.78,122.7 331.35,122.52 330.86,122.52 330.25,122.52 329.82,122.7 
	329.39,123.01 329.09,123.13 328.9,123.56 328.9,123.87 329.09,124.17 329.39,124.36 329.94,124.66 330.86,124.97 331.78,125.09 
	332.39,125.4 333.01,125.58 333.44,125.83 333.74,126.32 333.93,126.62 334.05,127.24 334.05,127.66 334.05,128.28 333.74,129.2 
	333.13,129.93 332.7,130.42 332.09,130.85 331.48,131.16 330.86,131.28 330.13,131.46 329.21,131.46 327.55,131.28 326.33,130.54 
	325.72,129.5 325.72,127.97 327.68,127.85 327.68,128.4 327.86,128.89 328.17,129.32 328.6,129.5 329.09,129.63 329.7,129.81 
	330.25,129.63 330.74,129.63 331.17,129.32 331.48,129.01 331.78,128.71 331.97,128.28 331.97,127.97 331.78,127.66 331.66,127.54 
	331.17,127.24 330.86,127.24 330.25,127.05 329.51,126.75 328.6,126.44 327.86,126.13 327.37,125.83 327.06,125.4 326.94,124.79 
	326.76,124.36 326.94,123.74 327.06,123.01 327.68,122.21 327.98,121.78 328.6,121.48 329.09,121.17 329.82,120.99 330.43,120.86 
	"/>
<polygon points="331.17,120.86 332.88,120.99 334.05,121.6 334.35,122.09 334.54,122.7 334.66,123.25 334.54,123.87 332.58,124.05 
	332.39,123.56 332.39,123.13 332.09,122.83 331.78,122.7 331.35,122.52 330.86,122.52 330.25,122.52 329.82,122.7 329.39,123.01 
	329.09,123.13 328.9,123.56 328.9,123.87 329.09,124.17 329.39,124.36 329.94,124.66 330.86,124.97 331.78,125.09 332.39,125.4 
	333.01,125.58 333.44,125.83 333.74,126.32 333.93,126.62 334.05,127.24 334.05,127.66 334.05,128.28 333.74,129.2 333.13,129.93 
	332.7,130.42 332.09,130.85 331.48,131.16 330.86,131.28 330.13,131.46 329.21,131.46 327.55,131.28 326.33,130.54 325.72,129.5 
	325.72,127.97 327.68,127.85 327.68,128.4 327.86,128.89 328.17,129.32 328.6,129.5 329.09,129.63 329.7,129.81 330.25,129.63 
	330.74,129.63 331.17,129.32 331.48,129.01 331.78,128.71 331.97,128.28 331.97,127.97 331.78,127.66 331.66,127.54 331.17,127.24 
	330.86,127.24 330.25,127.05 329.51,126.75 328.6,126.44 327.86,126.13 327.37,125.83 327.06,125.4 326.94,124.79 326.76,124.36 
	326.94,123.74 327.06,123.01 327.68,122.21 327.98,121.78 328.6,121.48 329.09,121.17 329.82,120.99 330.43,120.86 "/>
</svg>
